<?xml version="1.0" encoding="UTF-8" standalone="no"?>
<!-- Created with Inkscape (http://www.inkscape.org/) -->

<svg
   width="123.11961mm"
   height="85.445732mm"
   viewBox="0 0 123.11961 85.445732"
   version="1.1"
   id="svg1"
   xml:space="preserve"
   inkscape:version="1.3.2 (091e20e, 2023-11-25, custom)"
   sodipodi:docname="fleche.svg"
   xmlns:inkscape="http://www.inkscape.org/namespaces/inkscape"
   xmlns:sodipodi="http://sodipodi.sourceforge.net/DTD/sodipodi-0.dtd"
   xmlns="http://www.w3.org/2000/svg"
   xmlns:svg="http://www.w3.org/2000/svg"><sodipodi:namedview
     id="namedview1"
     pagecolor="#ffffff"
     bordercolor="#000000"
     borderopacity="0.25"
     inkscape:showpageshadow="2"
     inkscape:pageopacity="0.0"
     inkscape:pagecheckerboard="0"
     inkscape:deskcolor="#d1d1d1"
     inkscape:document-units="mm"
     inkscape:zoom="1.4627806"
     inkscape:cx="216.36875"
     inkscape:cy="190.39082"
     inkscape:window-width="1920"
     inkscape:window-height="1017"
     inkscape:window-x="-8"
     inkscape:window-y="-8"
     inkscape:window-maximized="1"
     inkscape:current-layer="layer1" /><defs
     id="defs1"><filter
       inkscape:collect="always"
       style="color-interpolation-filters:sRGB"
       id="filter3"
       x="-0.0052660263"
       y="-0.00758787"
       width="1.0105321"
       height="1.0151757"><feGaussianBlur
         inkscape:collect="always"
         stdDeviation="0.21524745"
         id="feGaussianBlur3" /></filter><filter
       inkscape:collect="always"
       style="color-interpolation-filters:sRGB"
       id="filter4"
       x="-0.053204331"
       y="-0.076662652"
       width="1.1064087"
       height="1.1533253"><feGaussianBlur
         inkscape:collect="always"
         stdDeviation="2.1747131"
         id="feGaussianBlur4" /></filter></defs><g
     inkscape:label="Calque 1"
     inkscape:groupmode="layer"
     id="layer1"
     transform="translate(-24.061628,-81.704964)"><path
       style="fill:#808080;stroke-width:0.796781;opacity:0.99614396;fill-opacity:1;filter:url(#filter4)"
       d="m 85.024059,158.27301 c -0.231897,-0.0993 -11.228534,-10.99523 -24.436972,-24.21314 -21.7454,-21.76101 -24.015341,-24.09556 -24.015341,-24.6989 0,-0.59688 0.942926,-1.61 9.047477,-9.721044 4.976112,-4.980097 9.250709,-9.107024 9.499105,-9.17095 0.248395,-0.0639 0.722729,0.02765 1.054074,0.203554 0.331347,0.175881 7.100237,6.823952 15.04198,14.77348 l 14.439535,14.45371 14.761843,-14.75633 c 12.39809,-12.393445 14.85488,-14.756331 15.3428,-14.756331 0.38871,0 0.89656,0.290929 1.53478,0.879224 l 0.95385,0.879224 -2.42209,2.247034 c -0.12585,0 -6.82456,6.593239 -14.88602,14.651639 -13.763582,13.75837 -14.701752,14.65164 -15.387987,14.65164 -0.686254,0 -1.627047,-0.89592 -15.439501,-14.70314 l -14.708718,-14.703131 -7.535551,7.535551 -7.535552,7.53555 22.60954,22.60954 22.609543,22.60954 22.662286,-22.66156 22.66228,-22.66155 -6.48084,-6.48337 c -0.99675,-0.99714 -6.08613,-5.847092 -8.57034,-8.452852 -2.18415,-2.291021 -0.21846,-4.269761 0.66997,-3.645734 1.93532,1.359357 6.95408,6.735598 12.11585,11.896306 5.61876,5.61762 6.06093,6.11322 6.06106,6.79348 1.3e-4,0.69307 -1.32532,2.05912 -23.87479,24.60623 -20.348205,20.34607 -24.73274,24.59516 -25.277094,24.49625 -0.04045,-0.007 -0.263281,-0.0946 -0.495177,-0.19392 z"
       id="path1"
       sodipodi:nodetypes="ssssccscsssccssscccccccsssssscs" /><path
       style="fill:#000000;stroke-width:0.796781;opacity:0.5;filter:url(#filter3)"
       d="m 85.024059,158.27301 c -0.231897,-0.0993 -11.228534,-10.99523 -24.436972,-24.21314 -21.7454,-21.76101 -24.015341,-24.09556 -24.015341,-24.6989 0,-0.59688 0.942926,-1.61 9.047477,-9.721044 4.976112,-4.980097 9.250709,-9.107024 9.499105,-9.17095 0.248395,-0.0639 0.722729,0.02765 1.054074,0.203554 0.331347,0.175881 7.100237,6.823952 15.04198,14.77348 l 14.439535,14.45371 14.761843,-14.75633 c 12.39809,-12.393445 14.85488,-14.756331 15.3428,-14.756331 0.38871,0 0.89656,0.290929 1.53478,0.879224 l 0.95385,0.879224 -2.42209,2.247034 c -0.12585,0 -6.82456,6.593239 -14.88602,14.651639 -13.763582,13.75837 -14.701752,14.65164 -15.387987,14.65164 -0.686254,0 -1.627047,-0.89592 -15.439501,-14.70314 l -14.708718,-14.703131 -7.535551,7.535551 -7.535552,7.53555 22.60954,22.60954 22.609543,22.60954 22.662286,-22.66156 22.66228,-22.66155 -6.48084,-6.48337 c -0.99675,-0.99714 -6.08613,-5.847092 -8.57034,-8.452852 -2.18415,-2.291021 -0.21846,-4.269761 0.66997,-3.645734 1.93532,1.359357 6.95408,6.735598 12.11585,11.896306 5.61876,5.61762 6.06093,6.11322 6.06106,6.79348 1.3e-4,0.69307 -1.32532,2.05912 -23.87479,24.60623 -20.348205,20.34607 -24.73274,24.59516 -25.277094,24.49625 -0.04045,-0.007 -0.263281,-0.0946 -0.495177,-0.19392 z"
       id="path3"
       sodipodi:nodetypes="ssssccscsssccssscccccccsssssscs" /></g></svg>
